<?xml version="1.0" encoding="utf-8"?>
<!-- Generator: Adobe Illustrator 19.0.1, SVG Export Plug-In . SVG Version: 6.00 Build 0)  -->
<svg version="1.1" id="Capa_1" xmlns="http://www.w3.org/2000/svg" xmlns:xlink="http://www.w3.org/1999/xlink" x="0px" y="0px"
	 viewBox="0 0 198.4 198.4" style="enable-background:new 0 0 198.4 198.4;" xml:space="preserve">
<style type="text/css">
	.st0{fill:#FFFFFF;stroke:#FFFFFF;stroke-width:1.5;}
	.st1{fill:#FFFFFF;fill-opacity:0;stroke:#FFFFFF;stroke-width:1.5;}
	.st2{fill:#F9F2F2;}
</style>
<g>
	<circle class="st0" cx="152.1" cy="47.1" r="16.9">
	
		<animate  fill="remove" repeatCount="indefinite" begin="0s" attributeName="fill-opacity" accumulate="none" dur="1.3s" additive="replace" restart="always" calcMode="linear" values="1;0;0;0;0;0;0;0">
		</animate>
	</circle>
	<circle class="st1" cx="173.9" cy="99.7" r="16.9">
	
		<animate  fill="remove" repeatCount="indefinite" begin="0s" attributeName="fill-opacity" accumulate="none" dur="1.3s" additive="replace" restart="always" calcMode="linear" values="0;1;0;0;0;0;0;0">
		</animate>
	</circle>
	<circle class="st1" cx="152.1" cy="152.4" r="16.9">
	
		<animate  fill="remove" repeatCount="indefinite" begin="0s" attributeName="fill-opacity" accumulate="none" dur="1.3s" additive="replace" restart="always" calcMode="linear" values="0;0;1;0;0;0;0;0">
		</animate>
	</circle>
	<circle class="st1" cx="99.5" cy="174.2" r="16.9">
	
		<animate  fill="remove" repeatCount="indefinite" begin="0s" attributeName="fill-opacity" accumulate="none" dur="1.3s" additive="replace" restart="always" calcMode="linear" values="0;0;0;1;0;0;0;0">
		</animate>
	</circle>
	<circle class="st1" cx="46.8" cy="152.4" r="16.9">
	
		<animate  fill="remove" repeatCount="indefinite" begin="0s" attributeName="fill-opacity" accumulate="none" dur="1.3s" additive="replace" restart="always" calcMode="linear" values="0;0;0;0;1;0;0;0">
		</animate>
	</circle>
	<circle class="st1" cx="25" cy="99.7" r="16.9">
	
		<animate  fill="remove" repeatCount="indefinite" begin="0s" attributeName="fill-opacity" accumulate="none" dur="1.3s" additive="replace" restart="always" calcMode="linear" values="0;0;0;0;0;1;0;0">
		</animate>
	</circle>
	<circle class="st1" cx="46.8" cy="47.1" r="16.9">
	
		<animate  fill="remove" repeatCount="indefinite" begin="0s" attributeName="fill-opacity" accumulate="none" dur="1.3s" additive="replace" restart="always" calcMode="linear" values="0;0;0;0;0;0;1;0">
		</animate>
	</circle>
	<circle class="st1" cx="99.5" cy="25.3" r="16.9">
	
		<animate  fill="remove" repeatCount="indefinite" begin="0s" attributeName="fill-opacity" accumulate="none" dur="1.3s" additive="replace" restart="always" calcMode="linear" values="0;0;0;0;0;0;0;1">
		</animate>
	</circle>
</g>
<g>
	<g>
		<path class="st2" d="M101,73.5h0.7c0.8,0.4,1.6,0.6,2.4,1c5.7,2.3,11.4,4.5,17.1,6.8c2,0.8,3.9,1.5,5.8,2.3
			c-0.7,1.1-1.4,2.1-2,3.2c-0.6-0.2-1.2-0.5-1.9-0.7c0,0.5,0,0.9-0.1,1.4c-0.3,0.4-0.8,0.1-1.2,0.3c-0.3,0.1-0.2,0.6,0,0.8
			c0.4,0.4,0.7,0.8,0.7,1.4c0,0.6-0.3,1.2-0.8,1.6c-0.4,0.4-0.9,0.4-1.3,0.8c0,0.1,0,0.3,0,0.4c0,3.1,0,6.2,0,9.3
			c0,0.4,0.2,0.7,0.3,1c0,0.3,0,0.6,0.1,0.9c0.3,0.2,0.6,0.1,1,0.2c0.2,0.3,0,0.7,0.2,1.1c0.5,0.1,1.1,0,1.6,0.1
			c0.2,0,0.3,0.2,0.3,0.3c0,0.5,0,1,0,1.6c0.4,0.1,0.8,0.1,1.3,0.1c0,0.4,0,0.8,0,1.2c0.4,0.1,1-0.1,1.2,0.3c0.1,0.5,0,1,0,1.5
			c-0.6,0.1-1.1,0.1-1.7,0.1c-1.9,0-3.8,0-5.7,0c-0.6,0-1.3-0.2-1.9-0.1c-0.6,0.1-1.2,0.1-1.9,0.1c-2.2,0-4.5,0-6.7,0
			c-0.7-0.1-1.6-0.3-2.2,0.3c0.3,0.2,0.6,0.3,0.9,0.4c2,0.4,4,0.8,6,1.3c2,0.5,4.1,1,6.1,1.5c0.5,0.1,1,0.4,1.5,0.6
			c0.8,0.4,1.7,0.6,2.5,1c-0.5,0.5-0.8,1.2-1.2,1.8c-0.3,0.5-0.4,1.1-0.6,1.7c-0.1,0-0.2,0-0.3,0c-0.3-0.1-0.5-0.3-0.7-0.5
			c0,0-0.1,0-0.2,0c-0.2,0-0.3,0-0.5,0.1c-1.4-0.6-2.9-1.2-4.3-1.8c-1.7-0.7-3.3-1.4-5-2.3c-1.6-0.7-3.1-1.6-4.7-2.2
			c-0.2-0.1-0.5-0.1-0.7,0.1c-0.4,0.4-0.7,0.8-1.1,1.2c-1,1-2.2,1.6-3.4,2.2c0,0.2,0,0.5,0,0.7c-0.2,0.3-0.6,0.3-1,0.3
			c-2.6-0.3-5.2-1.1-7.6-2.3c-1.2-0.6-2.5-1.4-3.4-2.4c-0.2-0.2-0.3-0.5-0.4-0.8c0.9-0.1,1.8,0.4,2.6,0.8c1,0.5,1.9,0.9,2.9,1.4
			c0.6,0.3,1.3,0.6,1.9,0.8c-0.2-0.2-0.4-0.4-0.6-0.6c-1-0.7-2.1-1.3-3-2.1c-0.3-0.3-0.6-0.6-0.9-0.9c-0.7-0.4-1.6,0.1-2.3-0.1
			c-0.6-0.1-1.3,0.1-1.9,0c-1.8,0-3.6,0-5.4,0c-1.5,0-3,0.1-4.4-0.1c-0.4,0-1,0.2-1.3-0.2c0-0.5-0.1-1,0.1-1.4
			c0.4-0.2,0.8-0.2,1.2-0.2c0-0.4,0-0.8,0-1.2c0.3,0,0.6-0.1,0.9-0.1c0-0.5,0-1,0-1.5c0-0.3,0.3-0.4,0.5-0.4c0.6,0,1.1,0,1.7,0
			c0-0.4,0-0.8,0-1.1c0.3,0,0.6,0,0.9-0.1c0.3-0.1,0.1-0.4,0.2-0.6c0-0.4,0.3-0.8,0.3-1.2c0-3.3,0-6.6,0-10
			c-0.7-0.4-1.4-0.7-1.7-1.5c-0.2-0.5-0.1-1,0.1-1.5c0.3-0.5,0.9-0.7,0.9-1.4c-0.6-0.2-1.3-0.1-1.9-0.2c0-0.5,0-1,0-1.6
			c-0.6,0.2-1.2,0.5-1.9,0.6c-0.6-1.2-1.3-2.2-1.8-3.4c4-1.5,8-3.1,12-4.6c2.1-0.7,4.1-1.6,6.2-2.3c2.2-0.8,4.4-1.7,6.6-2.5
			C100.5,73.8,100.8,73.7,101,73.5z M99.5,77.9c-5.1,2-10.1,4.1-15.2,6.1c-1.1,0.5-2.2,0.8-3.2,1.3c0.2,0,0.5,0.1,0.7,0.1
			c11.3,0,22.7,0,34,0c1.7,0,3.5,0,5.2,0c0,0,0-0.1,0-0.2c-1.5-0.6-2.9-1.2-4.4-1.8c-1.2-0.5-2.4-1-3.6-1.5
			c-3.7-1.5-7.4-3.1-11.1-4.6C101.1,77,100.3,77.6,99.5,77.9z M91.8,88.5c0.1,0.5,0.5,0.8,0.6,1.3c0,0.5-0.2,1-0.5,1.5
			c-0.4,0.5-1,0.7-1.6,1c0,3.4,0,6.9,0,10.3c0.1,0.1,0.2,0.2,0.3,0.3c0,0.3,0,0.7,0,1c0.2,0.2,0.5,0.1,0.8,0.2
			c0.2,0.1,0.3,0.2,0.5,0.3c0.3-0.3,0.5-0.7,0.8-1.1c0.6-0.9,1.3-1.7,2.2-2.4c0.9-0.8,2-1.3,3-1.9c0.1-0.3,0-0.6,0.2-0.8
			c0.5-0.1,1-0.1,1.4,0c2.9,0.5,5.7,1.4,8.2,2.9c1,0.6,2,1.3,2.6,2.3c0,0.1-0.1,0.2-0.2,0.3c-0.8,0-1.4-0.3-2.1-0.6
			c-1.2-0.6-2.5-1.2-3.8-1.8c-0.5-0.2-0.9-0.5-1.4-0.5c0.4,0.3,0.9,0.6,1.3,0.9c0.9,0.6,1.8,1.2,2.6,1.9c0.5,0.5,0.8,1,1.2,1.6
			c0.8,0.2,1.6,0,2.4,0c0-0.3,0-0.6,0-1c0.2-0.4,0.8,0,1.1-0.4c0-0.3,0-0.6,0-0.8c0.1-0.3,0.4-0.5,0.3-0.8c0-3.4,0-6.7,0-10.1
			c-0.4-0.4-1-0.5-1.3-0.9c-0.4-0.5-0.5-1.1-0.4-1.7c0.2-0.4,0.4-0.7,0.5-1.2c-6,0-12.1,0-18.1,0C92.3,88.4,92.1,88.4,91.8,88.5z
			 M82.2,88.8c-0.3,0.1-0.5,0.3-0.7,0.5c-0.2,0.4-0.2,0.9,0.1,1.2c0.6,0.7,2.1,0.4,2.2-0.6C83.8,89,82.9,88.6,82.2,88.8z M89.7,88.8
			c-0.2,0.1-0.4,0.2-0.6,0.4C88.9,89.4,89,89.8,89,90c0.1,0.6,0.9,0.9,1.5,0.8c0.4-0.1,0.9-0.5,0.8-1C91.5,89,90.4,88.5,89.7,88.8z
			 M112.3,88.8c-0.2,0.1-0.4,0.2-0.6,0.4c-0.3,0.3-0.2,0.7-0.2,1c0.5,0.8,1.7,0.9,2.2,0.2c0.2-0.2,0.2-0.6,0.2-0.9
			C113.6,88.9,112.9,88.6,112.3,88.8z M120.1,88.8c-0.5,0.1-1,0.5-1,1.1c0,0.6,0.6,1,1.1,1c0.6,0.1,1.1-0.3,1.3-0.8
			C121.8,89.2,120.8,88.6,120.1,88.8z M84.9,92.4c-0.1,0.3-0.1,0.5-0.1,0.8c0,2.5,0,5,0,7.5c0,0.7-0.1,1.3,0.1,2
			c0.8,0.2,1.6,0.2,2.3,0c0.3-0.5,0-1.1,0.1-1.6c0-2.2,0-4.4,0-6.6c0.1-0.6,0.1-1.3,0-1.9c-0.1-0.1-0.3-0.1-0.5-0.2
			C86.2,92.3,85.5,92.3,84.9,92.4z M115.2,92.5c0,0.3-0.1,0.5-0.1,0.8c0,3,0,5.9,0,8.9c0,0.2,0.2,0.4,0.4,0.4c0.6,0,1.1,0,1.7,0
			c0.1-0.1,0.2-0.2,0.2-0.4c0-3.1,0-6.1,0-9.2c0-0.2,0-0.3-0.2-0.5C116.5,92.4,115.8,92.4,115.2,92.5z"/>
	</g>
	<path class="st2" d="M102.5,82.7c0.4-0.7,1.5-0.8,2.2-0.5c0.4,0.2,0.6,0.7,0.6,1.1c-0.3,0-0.7,0-1,0c-0.1-0.2-0.2-0.5-0.5-0.4
		c-0.4,0-0.5,0.4-0.5,0.7c0,0.3,0.2,0.8,0.6,0.7c0.3,0,0.3-0.3,0.4-0.5c0.3,0,0.6,0,1,0c0,0.6-0.4,1.2-1,1.3c-0.5,0-1,0.1-1.4-0.2
		C102.2,84.5,102.1,83.4,102.5,82.7z"/>
	<g>
		<path class="st2" d="M110.3,82c0.7-0.1,1.4,0.1,1.7,0.7c0.3,0.7,0.2,1.7-0.4,2.2c-0.4,0.3-1,0.2-1.5,0.2c-0.8-0.2-1.2-1.3-1-2.1
			C109.2,82.5,109.7,82.1,110.3,82z M110.4,82.9c-0.3,0.1-0.2,0.4-0.2,0.6c0,0.2,0,0.6,0.2,0.7c0.2,0.1,0.5,0.1,0.6-0.1
			c0.2-0.3,0.2-0.8,0-1.1C110.8,82.8,110.6,82.8,110.4,82.9z"/>
	</g>
	<g>
		<path class="st2" d="M89.9,82.1c0.7,0,1.3-0.1,2,0.1c0.6,0.1,0.9,0.9,0.9,1.4c0.1,0.6-0.2,1.2-0.8,1.4c-0.7,0.2-1.4,0.1-2,0.1
			C89.9,84.1,90,83.1,89.9,82.1z M91,82.9c0,0.5,0,0.9,0,1.4c0.2-0.1,0.5-0.1,0.6-0.3c0.1-0.3,0-0.6,0-0.9C91.5,83,91.3,83,91,82.9z
			"/>
	</g>
	<path class="st2" d="M93.2,82.1c0.8,0,1.6,0,2.5,0c0,0.3,0,0.5,0,0.8c-0.5,0-1-0.1-1.5,0.1c0.4,0.2,0.9,0.1,1.3,0.1
		c0,0.3,0,0.5,0,0.8c-0.4,0-0.8,0-1.2,0c0,0.1,0,0.2,0,0.3c0.5,0,1,0,1.5,0c0,0.3,0,0.6,0,0.8c-0.8,0-1.7,0-2.5,0
		C93.2,84.1,93.2,83.1,93.2,82.1z"/>
	<g>
		<path class="st2" d="M96.2,82.1c0.8,0,1.6-0.1,2.3,0.1c0.6,0.2,0.6,1.1,0.2,1.5c0.4,0.4,0.3,1,0.4,1.5c-0.4,0-0.7,0-1.1,0
			c0-0.3-0.1-0.6-0.1-1c-0.2,0-0.4,0-0.6,0c0,0.3,0,0.7,0,1c-0.4,0-0.7,0-1.1,0C96.2,84.1,96.2,83.1,96.2,82.1z M97.3,82.9
			c0,0.1,0,0.3,0,0.4c0.2,0,0.4,0,0.6,0c0-0.1,0-0.2,0-0.3C97.7,82.9,97.5,82.9,97.3,82.9z"/>
	</g>
	<path class="st2" d="M99.5,82.1c0.8,0,1.6,0,2.4,0c0,0.3,0,0.6,0,0.8c-0.5,0.1-1.1-0.2-1.4,0.2c0.4,0.1,0.8,0.1,1.2,0.1
		c0,0.3,0,0.5,0,0.8c-0.4,0-0.8,0-1.1,0c0,0.1,0,0.2,0,0.3c0.5,0,0.9,0,1.4,0c0,0.3,0,0.6,0,0.9c-0.8,0-1.7,0-2.5,0
		C99.4,84.1,99.5,83.1,99.5,82.1z"/>
	<path class="st2" d="M105.7,82.1c0.4,0,0.7,0,1.1,0c0,0.3,0,0.7,0,1c0.2,0,0.5,0,0.7,0c0-0.3,0-0.7,0-1c0.4,0,0.7,0,1.1,0
		c0,1,0,2,0,3c-0.3,0-0.7,0-1,0c-0.1-0.4,0-0.8-0.1-1.2c-0.2,0-0.5,0-0.7,0c0,0.4,0,0.8,0,1.1c-0.4,0-0.7,0-1.1,0
		C105.7,84.1,105.7,83.1,105.7,82.1z"/>
	<path class="st2" d="M84.9,115c1.2-0.1,2.4,0.2,3.5,0.4c2.7,0.5,5.4,1.2,8,2.2c2.1,0.7,4.1,1.6,6,2.8c0.4,0.2,0.9,0.5,1.1,0.9
		c0.1,0.3-0.2,0.5-0.4,0.5c-2.9,0.2-5.8-0.4-8.5-1.1c-2-0.6-3.9-1.3-5.9-2c-1.3-0.5-2.6-0.8-3.7-1.7c-0.4-0.4-1-0.8-0.9-1.4
		C84.1,115.1,84.6,115,84.9,115z"/>
	<path class="st2" d="M125.9,119.3c0.2-0.7,0.2-1.4,0.4-2.1c1.1,0.5,2,1.2,3,1.7c0.1,0.1,0.2,0.1,0.4,0.2c0.1,0.3,0.4,0.5,0.7,0.7
		c-0.4,0.2-0.8,0.3-1.3,0.4c-0.7,0.2-1.3,0.6-1.9,0.8c-0.5-0.2-1.1-0.3-1.7-0.5C125.5,120.2,125.7,119.7,125.9,119.3z"/>
	<path class="st2" d="M63.2,77.7c0.1-0.2,0.3-0.4,0.5-0.6c0.2,0.2,0.5,0.4,0.6,0.7c0.3,0.6,0.7,1.2,0.9,1.8c0.2,0.5,0.3,1.1,0.5,1.7
		c0.3,1.1,0.1,2.4-0.3,3.5c-0.3,0.7-0.8,1.3-1.3,1.9c-0.2,0.2-0.4,0.5-0.7,0.4c-0.6-0.4-1-1.1-1.4-1.7c-0.4-0.7-0.6-1.5-0.7-2.3
		c0.1-0.7,0.2-1.5,0.4-2.2C62.2,79.8,62.6,78.7,63.2,77.7z"/>
	<path class="st2" d="M138.2,77.3c0.2,0,0.4-0.1,0.5,0.1c0.7,1.5,1.7,2.8,2,4.5c0.1,0.5,0.3,1,0.1,1.5c-0.1,0.7-0.3,1.5-0.7,2.1
		c-0.3,0.6-0.7,1.2-1.3,1.5c-0.2,0.1-0.5,0-0.6-0.1c-0.8-0.6-1.3-1.4-1.7-2.3c-0.2-0.8-0.4-1.6-0.3-2.5c0-0.5,0.1-0.9,0.2-1.4
		c0.2-0.9,0.7-1.7,1.1-2.5C137.8,77.8,137.9,77.5,138.2,77.3z"/>
	<path class="st2" d="M70.2,84c1-0.2,1.9-0.7,2.9-0.6c-0.2,0.8-0.6,1.5-1,2.2c-0.3,0.7-0.8,1.3-1.3,1.8c-1.5,1.8-4,2.8-6.3,2.6
		c-0.2,0-0.3-0.3-0.3-0.5c0.2-1.3,0.8-2.4,1.6-3.4c0.5-0.6,1.2-0.9,1.9-1.3C68.5,84.5,69.4,84.3,70.2,84z"/>
	<path class="st2" d="M129.2,83.5c0.5,0,0.9,0,1.4,0.1c1.2,0.4,2.6,0.7,3.8,1.3c1,0.6,2,1.2,2.6,2.2c0.4,0.6,0.7,1.3,0.9,2.1
		c0,0.3,0.1,0.7-0.1,0.9c-0.5,0.1-0.9,0.1-1.4,0c-0.7-0.1-1.4-0.2-2.1-0.5c-1.9-0.8-3.4-2.4-4.3-4.2
		C129.6,84.8,129.2,84.2,129.2,83.5z"/>
	<path class="st2" d="M58.5,85.1c0.3,0,0.4,0.2,0.6,0.4c1,1.1,2,2.3,2.4,3.8c0.5,1.5,0.5,3.3-0.4,4.6c-0.2,0.4-0.5,0.8-0.9,1
		c-0.3,0.1-0.5-0.2-0.7-0.3c-0.6-0.6-1.3-1.1-1.7-1.9c-0.5-0.8-0.7-1.7-0.7-2.6c0-0.6,0.2-1.1,0.2-1.7c0-0.7,0.5-1.3,0.6-2
		C58.1,85.8,58.1,85.3,58.5,85.1z"/>
	<path class="st2" d="M143.2,85.3c0.1-0.1,0.3-0.4,0.5-0.2c0.3,0.2,0.3,0.5,0.4,0.8c0.1,0.4,0.2,0.7,0.4,1c0.2,0.5,0.2,1,0.3,1.5
		c0.1,0.6,0.3,1.2,0.2,1.8c-0.1,1.5-0.9,2.9-2,3.8c-0.4,0.3-0.7,0.8-1.3,0.7c-0.5-0.7-1.1-1.3-1.3-2.2c-0.3-0.8-0.2-1.6-0.2-2.4
		c0.2-0.8,0.4-1.6,0.8-2.4C141.7,87,142.4,86.1,143.2,85.3z"/>
	<path class="st2" d="M134.1,90.6c0.5,0,0.9,0.3,1.3,0.5c1.4,0.8,2.9,1.6,4,2.9c0.7,0.9,1.2,2,1.3,3.1c0,0.5,0,1,0,1.6
		c0,0.3-0.3,0.5-0.5,0.4c-0.6-0.1-1.2-0.4-1.8-0.6c-0.9-0.4-1.6-1.1-2.3-1.7c-0.7-0.7-1.2-1.6-1.4-2.6c-0.2-0.7-0.5-1.3-0.5-2.1
		C134.2,91.6,134.2,91.1,134.1,90.6z"/>
	<path class="st2" d="M66.5,91.3c0.5-0.2,0.9-0.6,1.5-0.6c0,1.1,0,2.3-0.4,3.4c-0.3,1.2-0.9,2.3-1.7,3.1c-0.8,0.7-1.8,1.3-2.9,1.7
		C62.6,99,62.2,99,61.9,99c-0.1,0-0.2,0-0.2-0.2c-0.2-0.6-0.2-1.4-0.2-2c0-1.3,0.8-2.4,1.7-3.3C64.2,92.7,65.3,91.9,66.5,91.3z"/>
	<path class="st2" d="M54.5,93.6c0.6,0.1,1.1,0.5,1.7,0.8c1.1,0.7,2.2,1.4,3.1,2.4c0.4,0.6,0.9,1.3,1.1,2c0.2,0.6,0.4,1.3,0.3,1.9
		c-0.1,0.6-0.1,1.3-0.5,1.7c-0.8-0.2-1.6-0.5-2.3-0.9c-1.3-0.7-2.3-1.9-2.7-3.3c-0.2-0.7-0.3-1.5-0.5-2.2
		C54.5,95.2,54.5,94.4,54.5,93.6z"/>
	<path class="st2" d="M147.3,93.7c0.1,0,0.3-0.1,0.3,0.1c0.1,1.2-0.1,2.5-0.4,3.7c-0.2,1-0.7,2.1-1.4,2.9c-0.4,0.4-0.9,0.8-1.4,1.1
		c-0.8,0.5-1.6,0.8-2.4,1c-0.3-0.2-0.3-0.7-0.4-1c-0.2-0.8-0.1-1.5,0.1-2.3c0.2-1,0.8-1.8,1.5-2.6c0.7-0.6,1.3-1.2,2.1-1.7
		c0.4-0.3,0.9-0.4,1.4-0.7C146.8,94,147,93.8,147.3,93.7z"/>
	<path class="st2" d="M65.8,98.5c0.5-0.4,0.8-1,1.5-1.1c0.3,0.8,0.4,1.8,0.5,2.7c0,0.5,0,1.1-0.1,1.6c-0.2,0.7-0.2,1.5-0.7,2.2
		c-0.7,1.4-2.1,2.4-3.6,3c-0.5-0.2-0.6-0.8-0.7-1.2c-0.1-0.6-0.3-1.3-0.3-1.9c0.1-0.9,0.3-1.7,0.8-2.5
		C63.9,100.2,64.8,99.3,65.8,98.5z"/>
	<path class="st2" d="M134.9,97.5c0.7,0,1,0.8,1.6,1.1c0.9,0.8,1.7,1.6,2.4,2.5c0.7,1.2,1.1,2.6,0.7,3.9c-0.1,0.5-0.2,1-0.5,1.5
		c-0.2,0.3-0.6,0.2-0.9,0.1c-1.3-0.6-2.4-1.6-3.1-2.8c-0.4-0.6-0.5-1.3-0.7-2C134.4,100.4,134.5,98.9,134.9,97.5z"/>
	<path class="st2" d="M147.8,102c0.4-0.1,0.9-0.2,1.3,0c-0.2,0.5-0.5,1-0.7,1.5c-0.6,0.9-1.1,1.9-1.9,2.7c-1.1,1.2-2.7,1.9-4.3,2.1
		c-0.7,0.1-1.4,0.1-2.1,0.1c-0.2-0.7,0.1-1.4,0.4-2.1c0.3-0.8,1-1.5,1.7-2c0.9-0.7,2-1.2,3.1-1.6C146.1,102.4,146.9,102.1,147.8,102
		z"/>
	<path class="st2" d="M53.1,102c0.6-0.3,1.1,0,1.7,0.1c0.6,0.1,1.2,0.3,1.9,0.4c0.8,0.1,1.6,0.6,2.3,1c1,0.5,1.9,1.3,2.4,2.3
		c0.4,0.8,0.8,1.6,0.6,2.5c-1.2,0-2.3,0-3.5-0.3c-1.6-0.5-3-1.6-3.9-3C54.1,104,53.5,103.1,53.1,102z"/>
	<path class="st2" d="M68.5,104.7c0.3,0,0.4,0.3,0.5,0.5c0.2,0.9,0.7,1.8,0.7,2.7c0,0.6,0,1.3,0,2c0,0.6-0.3,1.2-0.5,1.7
		c-0.4,0.9-1.2,1.6-2,2.3c-0.3,0.2-0.7,0.5-1.1,0.4c-0.2-0.2-0.3-0.4-0.4-0.7c-0.3-0.5-0.6-1-0.6-1.6c-0.3-1.2-0.1-2.4,0.5-3.5
		c0.4-0.8,0.8-1.5,1.4-2.2C67.5,105.9,67.8,105.1,68.5,104.7z"/>
	<path class="st2" d="M133,105.7c0.1-0.4,0.3-0.8,0.6-1c0.9,0.8,1.6,1.7,2.2,2.6c0.6,1,1.2,2,1.4,3.1c0.1,1.3-0.3,2.6-1.1,3.7
		c-0.1,0.2-0.4,0.3-0.6,0.2c-1.7-0.9-3-2.7-3.2-4.7c0-0.8-0.1-1.5,0.2-2.3C132.7,106.8,132.9,106.3,133,105.7z"/>
	<path class="st2" d="M54.3,108.7c0.6-0.2,1.3-0.1,2-0.1c1.1,0,2.2,0.3,3.3,0.5c0.5,0.1,1,0.4,1.4,0.6c1.6,0.8,2.9,2.2,3.3,3.9
		c-1.6,0.6-3.3,0.4-4.9-0.2c-1.1-0.5-2.1-1.2-2.9-2.1C55.8,110.5,54.9,109.7,54.3,108.7z"/>
	<path class="st2" d="M143.8,108.8c1.3-0.3,2.7-0.2,4-0.2c0,0.3-0.1,0.6-0.3,0.8c-0.5,0.6-1.1,1.2-1.6,1.8c-1.2,1.3-2.8,2.3-4.6,2.6
		c-1.1,0.2-2.2,0.3-3.2-0.1c-0.2,0-0.2-0.3-0.1-0.5c0.5-1.4,1.6-2.6,2.8-3.4C141.7,109.3,142.8,109.1,143.8,108.8z"/>
	<path class="st2" d="M71.2,110.8c0.3-0.5,0.6-1,1.1-1.3c0.6,0.7,1,1.6,1.4,2.4c0.3,1,0.7,2.1,0.6,3.2c-0.1,0.5-0.2,0.9-0.4,1.4
		c-0.3,0.9-0.9,1.7-1.6,2.4c-0.2,0.2-0.5,0.5-0.9,0.3c-0.6-0.4-1-1-1.3-1.7c-0.4-0.6-0.5-1.4-0.6-2.1c0-0.6,0.2-1.3,0.3-1.9
		C70.3,112.6,70.7,111.7,71.2,110.8z"/>
	<path class="st2" d="M129.7,109.7c0.1-0.2,0.3-0.2,0.4-0.1c0.4,0.3,0.6,0.8,0.9,1.2c0.5,0.9,1.1,1.8,1.4,2.8
		c0.2,0.8,0.5,1.7,0.2,2.5c-0.2,1-0.7,1.9-1.3,2.7c-0.2,0.3-0.6,0.4-0.9,0.5c-0.1-0.1-0.2-0.1-0.4-0.2c-0.1-0.3-0.3-0.6-0.6-0.8
		c-0.9-0.9-1.3-2.1-1.5-3.3C127.9,113.1,128.6,111.3,129.7,109.7z"/>
	<path class="st2" d="M76.2,113.5c0.6,0.1,1,0.6,1.4,1c1,1,1.9,2.2,2.5,3.5c0.4,1.2,0.5,2.6,0,3.8c-0.2,0.4-0.3,0.8-0.7,1.2
		c-0.1,0.2-0.4,0.2-0.6,0.1c-0.5-0.3-1-0.7-1.5-1.1c-0.7-0.6-1.2-1.4-1.6-2.2c-0.2-0.4-0.2-0.9-0.3-1.3c-0.1-1.1,0.1-2.2,0.2-3.3
		C75.8,114.6,76,114,76.2,113.5z"/>
	<path class="st2" d="M123.1,115.7c0.9-0.8,1.6-1.8,2.7-2.3c0.3,0.9,0.4,1.9,0.6,2.9c0.2,0.9-0.1,1.8,0,2.7c0.1-0.6,0.1-1.2,0.1-1.8
		c0.1,0,0.2,0.1,0.3,0.1c-0.2,0.7-0.2,1.4-0.4,2.1c-0.1,0.4-0.3,0.9-0.4,1.3c-0.1,0-0.2-0.1-0.3-0.1c-0.7,0.9-1.5,1.7-2.5,2.2
		c-0.3,0.2-0.7,0.2-0.9-0.1c-0.6-1-0.9-2.2-0.8-3.4c-0.2-0.1-0.3-0.1-0.5-0.2c0.1,0,0.2,0,0.3,0c0.2-0.6,0.3-1.1,0.6-1.7
		C122.2,116.9,122.6,116.2,123.1,115.7z"/>
	<path class="st2" d="M58.2,115.2c0.9-0.1,1.8-0.3,2.7-0.3c1.3,0,2.6-0.1,3.9,0.3c1.4,0.3,2.7,1.1,3.7,2.2c0.4,0.4,0.7,0.9,0.8,1.5
		c-1.5,0.5-3.1,0.7-4.6,0.5c-1.3-0.3-2.6-0.9-3.7-1.7c-0.8-0.6-1.5-1.3-2.2-1.9C58.5,115.7,58.3,115.5,58.2,115.2z"/>
	<path class="st2" d="M136.8,115.5c0.9-0.4,1.8-0.5,2.8-0.5c1.1,0,2.2-0.1,3.3,0.1c0.3,0.1,0.7,0.1,1,0.1c-0.3,0.5-0.8,0.8-1.2,1.2
		c-0.6,0.6-1.4,1.1-2.1,1.6c-0.9,0.6-1.9,1-2.9,1.3c-0.7,0.2-1.4,0.1-2.1,0.1c-0.7,0-1.4-0.2-2.1-0.3c-0.2-0.1-0.4-0.1-0.6-0.2
		c-0.1-0.4,0.2-0.7,0.4-1C134.2,116.8,135.4,115.9,136.8,115.5z"/>
	<path class="st2" d="M119.9,118.8c0.2,0,0.3,0,0.5-0.1c-0.1,1-0.7,1.9-1.1,2.7c-0.7,1.2-1.6,2.3-2.7,3.1c-1.5,0.9-3.3,1.4-5,0.9
		c0.2-0.6,0.2-1.3,0.5-1.9c0.4-0.8,0.8-1.5,1.5-2.1c1.3-1.1,3-1.7,4.6-2.2C118.6,119.1,119.3,119.1,119.9,118.8z"/>
	<path class="st2" d="M81.7,118.8c0.6,0,1.2,0.1,1.8,0.3c1.2,0.2,2.3,0.7,3.4,1.2c0.4,0.2,0.8,0.4,1.1,0.7c0.5,0.4,1,0.8,1.4,1.3
		c0.4,0.7,0.9,1.3,1,2.1c0.1,0.4,0.1,0.8,0.1,1.2c-0.6,0.1-1.2,0-1.8,0c-1.2-0.2-2.5-0.6-3.5-1.3c-1.2-1-2-2.3-2.8-3.7
		C82.1,120,81.9,119.4,81.7,118.8z"/>
	<path class="st2" d="M131,120.1c0.6,0.3,1.3,0.1,2,0.2c1.1-0.1,2.1,0.3,3.2,0.5c0.6,0.1,1.1,0.3,1.6,0.6c-0.6,0.6-1.4,1-2.2,1.4
		c-0.9,0.5-1.9,1-2.9,1.3c-0.7,0.2-1.5,0.3-2.3,0.3c-1.2-0.1-2.5-0.4-3.5-0.9c-0.2-0.1-0.5-0.3-0.4-0.6c0.3-0.6,0.9-0.9,1.4-1.3
		c0-0.1-0.1-0.2-0.1-0.2c0.6-0.3,1.2-0.6,1.9-0.8C130.2,120.4,130.6,120.3,131,120.1z"/>
	<path class="st2" d="M68.3,120.3c0.6,0,1.2,0,1.9,0c1,0,2,0.3,2.9,0.6c0.9,0.4,1.9,1,2.5,1.8c0.1,0.1,0.2,0.3,0.1,0.5
		c-0.3,0.3-0.7,0.4-1.1,0.6c-1,0.4-2.1,0.6-3.2,0.6c-1.1-0.1-2.2-0.3-3.2-0.8c-0.7-0.3-1.4-0.7-2.1-1.1c-0.6-0.4-1.3-0.6-1.7-1.2
		c0.4-0.2,0.9-0.4,1.3-0.5C66.6,120.6,67.4,120.3,68.3,120.3z"/>
	<path class="st2" d="M75.5,124.7c0.5-0.1,1.1-0.3,1.6-0.4c0.5-0.1,1.1,0,1.6-0.1c0.6,0,1.2-0.1,1.8,0.1c1,0.3,2,0.6,2.8,1.3
		c-0.5,1-1.6,1.4-2.6,2c-0.9,0.5-2,0.6-3,0.6c-0.4,0-0.9-0.1-1.3-0.1c-0.8,0-1.6-0.3-2.4-0.5c-0.7-0.2-1.4-0.3-2.1-0.6
		c-0.2,0-0.3-0.2-0.4-0.3C72.8,126,74.1,125.2,75.5,124.7z"/>
	<path class="st2" d="M122.4,124.2c0.8,0,1.7,0,2.5,0c0.8,0.2,1.7,0.4,2.5,0.8c1.1,0.5,2.3,1,3.2,1.9c-0.9,0.4-2,0.6-2.9,0.9
		c-0.6,0.1-1.3,0.3-1.9,0.3c-0.9,0-1.7,0-2.6,0c-1.2-0.3-2.4-0.8-3.3-1.5c-0.3-0.2-0.6-0.5-0.9-0.7c0.1-0.2,0.3-0.4,0.5-0.5
		C120.3,124.8,121.3,124.4,122.4,124.2z"/>
	<path class="st2" d="M101,125.2c0.9,0,2-0.2,2.8,0.4c0.7,0.4,1.2,1.1,1.2,1.9c-0.1,0.9-0.7,1.7-1.5,2c-0.6,0.2-1.1,0.4-1.7,0.3
		c-0.9-0.1-1.9-0.4-2.5-1.2c-0.4-0.4-0.4-1.1-0.3-1.7C99.3,126.1,100.1,125.5,101,125.2z"/>
	<path class="st2" d="M84.3,127.4c2-0.7,4.2-0.6,6.1,0.2c0.3,0.1,0.6,0.3,0.8,0.6c-0.2,0.6-0.8,1-1.3,1.4c-0.5,0.4-1,0.8-1.7,1
		c-0.6,0.2-1.2,0.3-1.8,0.4c-1,0.1-2,0-3-0.1c-1.2-0.2-2.5-0.3-3.6-0.8c0.6-0.7,1.4-1.1,2.1-1.6C82.7,128,83.5,127.7,84.3,127.4z"/>
	<path class="st2" d="M114.3,126.9c0.8-0.1,1.7,0,2.5,0.2c1.2,0.2,2.2,0.7,3.3,1.3c0.8,0.4,1.5,1,2.2,1.6c-0.2,0.2-0.4,0.3-0.7,0.4
		c-0.7,0.2-1.5,0.3-2.2,0.4c-0.9,0.1-1.8,0.4-2.8,0.3c-1.3-0.1-2.7-0.4-3.8-1.1c-0.6-0.4-1.2-0.9-1.7-1.4c-0.2-0.2-0.2-0.5,0.1-0.7
		C112.1,127.3,113.2,127.1,114.3,126.9z"/>
</g>
</svg>
